# xmcd CD database file
#
# Track frame offsets:
#	150
#	21555
#	41700
#	60737
#	71977
#	86440
#	97065
#	121482
#	136687
#	153185
#	187240
#
# Disc length: 2659 seconds
#
# Revision: 1
# Processed by: cddbd v1.5.1PL2 Copyright (c) Steve Scherf et al.
# Submitted via: CDex 1.51
#
DISCID=9f0a610b
DTITLE=George Golla - My Favourite guitar
DYEAR=1988
DGENRE=Jazz
TTITLE0=Watch What Happens
TTITLE1=Lil' Darlin'
TTITLE2=Little Girl Blue
TTITLE3=Lagoa
TTITLE4=Yesterday
TTITLE5=For All We Know
TTITLE6=Once I Loved
TTITLE7=ChegaDe Saudade
TTITLE8=Ain't It Lovely
TTITLE9=Violets For Her Furs
TTITLE10=Serenata
EXTD=YEAR: 1988
EXTT0=
EXTT1=
EXTT2=
EXTT3=
EXTT4=
EXTT5=
EXTT6=
EXTT7=
EXTT8=
EXTT9=
EXTT10=
PLAYORDER=
